<svg xmlns="http://www.w3.org/2000/svg" viewBox="0 0 150 150"><defs><style>.cls-1{fill:#fdb749;}.cls-1,.cls-2{stroke:#000;stroke-miterlimit:10;}.cls-2{fill:none;}</style></defs><g id="Gray"><circle class="cls-1" cx="75" cy="75" r="71.87"/><path class="cls-2" d="M132.89,65c-14.58,0-30-4.44-43.77-12.81C71.28,41.31,58,25,52.8,7.51l-.07-.23,1.4-.42.07.23c5.14,17.19,18.15,33.15,35.68,43.8s37.47,14.77,55,11.51l.24,0,.27,1.44-.24,0A67.15,67.15,0,0,1,132.89,65ZM53.34,7.61C58.6,24.93,71.72,41,89.38,51.72s37.73,14.9,55.44,11.68l-.08-.47c-17.61,3.2-37.68-1-55.11-11.62S59,24.68,53.8,7.47Z"/><path class="cls-2" d="M97.31,142.64l-.07-.23c-5-17.48-18.07-33.71-35.89-44.53S22.86,82.88,5,86.64l-.24,0-.3-1.44.24,0c18.25-3.82,39.18.34,57.44,11.43S93.56,124.18,98.65,142l.07.24ZM18.4,84.79c14.38,0,29.54,4.37,43.21,12.67,17.84,10.84,31,27.07,36,44.57l.46-.13C93,124.28,79.81,108,61.86,97.05S23.08,81.92,5,85.63l.09.48A65.69,65.69,0,0,1,18.4,84.79Z"/><path class="cls-2" d="M135.76,112.23l-.21-.13C115.48,99.71,95.1,87.24,75,75S34.34,50.44,14.15,38.38l-.21-.12.65-1.08.21.12c20.32,11.94,40.83,24.2,61,36.42s40.49,24.79,60.44,37.3l.21.13ZM14.61,38.09c20.13,12,40.52,24.3,60.63,36.51s40.35,24.6,60.36,37l.14-.24c-19.88-12.47-40.14-25-60.22-37.16S35,49.75,14.76,37.85Z"/><path class="cls-2" d="M39,136.06l-1.08-.65.13-.21c11.92-20.3,24.18-40.81,36.42-61s24.78-40.49,37.29-60.44l.13-.2,1.08.65-.13.21C100.41,34.52,87.94,54.9,75.72,75s-24.56,40.62-36.63,60.83Zm-.41-.82.24.15c12-20.14,24.32-40.54,36.51-60.63s24.61-40.35,37-60.36l-.24-.14C99.54,34.14,87,54.4,74.85,74.49S50.44,115,38.55,135.24Z"/></g></svg>