<svg xmlns="http://www.w3.org/2000/svg" viewBox="0 0 150 150"><defs><style>.cls-1{stroke:#fda535;stroke-miterlimit:10;}.cls-2{fill:#fda535;}</style></defs><g id="Yellow"><circle class="cls-1" cx="75" cy="75" r="72.93"/><path d="M145.66,63.69l-.18-1C127.69,66,107.36,61.77,89.7,51.05s-31-27-36.17-44.41l-.94.29c5.28,17.66,18.62,34.05,36.6,45S127.63,67,145.66,63.69Z"/><path class="cls-2" d="M133.31,65.73c-14.87,0-30.57-4.52-44.6-13-18.18-11-31.67-27.62-37-45.5l-.27-.89,2.72-.81.27.89c5.15,17.21,18.18,33.2,35.76,43.88s37.56,14.81,55.13,11.55l.91-.17.52,2.79-.91.17A68.2,68.2,0,0,1,133.31,65.73Z"/><path d="M98.46,143c-5.13-18-18.55-34.63-36.83-45.72S22.13,81.91,3.75,85.77l.2,1c18.14-3.8,39,.35,57.17,11.4s31.33,27.42,36.39,45.15Z"/><path class="cls-2" d="M96.87,144.43l-.25-.9c-5-17.5-18.11-33.76-36-44.61s-38.59-15-56.49-11.28l-.91.19-.59-2.78.91-.19c18.61-3.9,39.95.33,58.55,11.63s32.05,28.08,37.24,46.26l.26.9Z"/><path d="M136.53,111.83Q107.37,93.55,75.44,74.14,46,56.26,13.81,37.32l-.4.67Q43.59,56,74.9,75,105,93.28,136.12,112.5Z"/><path class="cls-2" d="M136.43,113.78l-.8-.49c-20.41-12.6-41-25.21-61.21-37.47s-41-24.81-61.49-37l-.8-.48,1.36-2.25.79.46C34.79,48.57,55.53,61,75.92,73.34s40.94,25.07,61.1,37.71l.77.48Z"/><path d="M112.12,13.47Q93.84,42.65,74.42,74.56,56.54,104,37.61,136.19l.66.4q18-30.18,37-61.49Q93.57,45,112.78,13.88Z"/><path class="cls-2" d="M38.59,137.87l-2.25-1.36.47-.79C48.9,115.15,61.28,94.41,73.63,74.08s25-40.89,37.7-61.1l.49-.77,2.25,1.36-.5.8C101,34.73,88.4,55.32,76.1,75.58s-24.78,41-37,61.49Z"/></g></svg>