<svg xmlns="http://www.w3.org/2000/svg" viewBox="0 0 150 150"><defs><style>.cls-1{fill:#333;}.cls-2{fill:#fdb546;}</style></defs><g id="Yellow"><circle class="cls-1" cx="35.84" cy="85.29" r="5.92"/><path class="cls-1" d="M29.89,85.48a12.19,12.19,0,0,0,7.59-5.81"/><path class="cls-2" d="M29.92,85.5l0,0s0,0,0,0l.46-.14s0,0,0,0,0,0,0,0l-.46.14Z"/><polygon class="cls-2" points="30.35 85.31 30.41 85 30.47 84.98 30.41 85.29 30.48 85.26 30.54 84.96 30.6 84.94 30.55 85.24 30.61 85.22 30.66 84.92 30.73 84.89 30.68 85.2 30.75 85.18 30.77 85.24 30.7 85.26 30.93 85.47 30.86 85.49 30.63 85.28 30.57 85.3 30.8 85.51 30.73 85.53 30.5 85.33 30.43 85.35 30.66 85.56 30.59 85.58 30.37 85.37 30.35 85.31"/><path class="cls-2" d="M30.86,85.2l0,0s0,0,0,0l.16-.06.28-.11s0,0,0,0,0,0,0,0l-.29.11-.16.06Z"/><polygon class="cls-2" points="31.27 84.98 31.31 84.68 31.37 84.65 31.34 84.96 31.4 84.93 31.43 84.62 31.5 84.6 31.46 84.9 31.53 84.88 31.56 84.57 31.62 84.54 31.59 84.85 31.66 84.82 31.68 84.88 31.62 84.91 31.86 85.1 31.8 85.13 31.55 84.94 31.49 84.96 31.73 85.15 31.67 85.18 31.42 84.99 31.36 85.02 31.6 85.21 31.53 85.23 31.29 85.04 31.27 84.98"/><path class="cls-2" d="M31.77,84.84l0,0s0,0,0,0l.43-.2s0,0,0,0,0,0,0,0l-.44.2Z"/><polygon class="cls-2" points="32.17 84.59 32.18 84.28 32.24 84.25 32.23 84.56 32.29 84.53 32.3 84.22 32.37 84.19 32.35 84.5 32.42 84.47 32.43 84.16 32.49 84.13 32.48 84.44 32.54 84.4 32.57 84.46 32.51 84.49 32.77 84.66 32.7 84.7 32.45 84.52 32.38 84.56 32.64 84.73 32.58 84.76 32.32 84.59 32.26 84.62 32.51 84.79 32.45 84.83 32.2 84.65 32.17 84.59"/><path class="cls-2" d="M32.65,84.42a0,0,0,0,1,0,0s0,0,0-.05l.42-.23s0,0,0,0,0,0,0,0l-.42.23Z"/><polygon class="cls-2" points="33.03 84.14 33.03 83.83 33.08 83.8 33.09 84.1 33.16 84.07 33.14 83.76 33.2 83.72 33.22 84.03 33.27 84 33.26 83.69 33.32 83.65 33.33 83.96 33.39 83.92 33.43 83.97 33.37 84.01 33.64 84.16 33.58 84.2 33.31 84.05 33.25 84.09 33.52 84.24 33.45 84.28 33.19 84.12 33.13 84.16 33.39 84.31 33.33 84.35 33.06 84.19 33.03 84.14"/><path class="cls-2" d="M33.5,83.92s0,0,0,0,0,0,0,0l.39-.26a0,0,0,0,1,0,0s0,0,0,0l-.4.27Z"/><polygon class="cls-2" points="33.86 83.61 33.83 83.31 33.88 83.27 33.92 83.57 33.98 83.53 33.94 83.23 34 83.19 34.03 83.49 34.09 83.45 34.05 83.15 34.1 83.11 34.15 83.41 34.21 83.37 34.24 83.42 34.19 83.47 34.47 83.59 34.41 83.64 34.13 83.51 34.07 83.55 34.35 83.68 34.29 83.72 34.01 83.59 33.95 83.63 34.23 83.76 34.18 83.8 33.9 83.67 33.86 83.61"/><path class="cls-2" d="M34.31,83.36s0,0,0,0,0,0,0,0l.38-.3s0,0,0,0a0,0,0,0,1,0,0l-.38.3Z"/><path class="cls-2" d="M34.65,83l-.06-.3,0,0,.06.31s0,0,0,0l-.06-.3.05,0,.07.31,0-.05-.07-.3.05,0,.07.3.06,0,0,0-.06,0,.3.11-.06,0-.29-.1,0,0,.29.11-.06,0L34.8,83l-.06.05.29.1-.05,0-.29-.11Z"/><path class="cls-2" d="M35.07,82.74h0s0,0,0,0a3.47,3.47,0,0,0,.34-.32,0,0,0,0,1,0,0,0,0,0,0,1,0,0l-.35.32Z"/><polygon class="cls-2" points="35.38 82.38 35.29 82.08 35.34 82.03 35.43 82.33 35.48 82.28 35.39 81.99 35.44 81.94 35.52 82.23 35.58 82.18 35.48 81.89 35.53 81.84 35.62 82.13 35.67 82.08 35.72 82.13 35.67 82.18 35.97 82.26 35.92 82.31 35.62 82.23 35.57 82.28 35.87 82.36 35.82 82.41 35.52 82.33 35.47 82.38 35.77 82.46 35.72 82.51 35.42 82.42 35.38 82.38"/><path class="cls-2" d="M35.77,82.06h0a0,0,0,0,1,0,0l.32-.36a0,0,0,0,1,0,0s0,0,0,0l-.31.36Z"/><path class="cls-2" d="M36.05,81.67l-.11-.29s0,0,.05,0l.11.29,0-.06L36,81.28l0-.06.12.29,0-.05-.12-.29,0,0,.12.28,0-.05,0,0,0,0,.31,0-.05.06-.3,0,0,0,.3.06,0,0-.3,0,0,0,.31.06a.12.12,0,0,1-.05,0l-.3-.06Z"/><path class="cls-2" d="M36.41,81.31h0a0,0,0,0,1,0,0l.11-.13c.06-.08.13-.16.18-.24s0,0,0,0,0,0,0,0-.13.17-.19.25a1.13,1.13,0,0,0-.1.13Z"/><polygon class="cls-2" points="36.66 80.91 36.52 80.63 36.56 80.57 36.7 80.85 36.74 80.79 36.6 80.51 36.64 80.46 36.78 80.73 36.82 80.67 36.68 80.4 36.72 80.34 36.86 80.62 36.9 80.56 36.95 80.59 36.91 80.65 37.22 80.68 37.18 80.74 36.87 80.71 36.83 80.77 37.14 80.8 37.1 80.86 36.79 80.83 36.75 80.89 37.06 80.92 37.02 80.97 36.71 80.94 36.66 80.91"/><path class="cls-2" d="M37,80.52h0a0,0,0,0,1,0,0c.07-.11.14-.22.2-.33l.05-.07a0,0,0,0,1,0,0s0,0,0,0l0,.07a3.87,3.87,0,0,1-.21.34Z"/><polygon class="cls-2" points="37.2 80.09 37.04 79.82 37.07 79.76 37.23 80.03 37.27 79.97 37.11 79.7 37.14 79.65 37.3 79.91 37.34 79.85 37.18 79.59 37.21 79.53 37.37 79.79 37.41 79.72 37.47 79.76 37.43 79.82 37.74 79.82 37.71 79.88 37.39 79.88 37.36 79.94 37.67 79.94 37.63 80 37.32 80 37.29 80.06 37.6 80.07 37.56 80.13 37.25 80.12 37.2 80.09"/><path class="cls-1" d="M34.59,91a10.58,10.58,0,0,1,7.1-5.54"/><path class="cls-2" d="M34.84,90.61h0a0,0,0,0,1,0,0l.08-.13a2.9,2.9,0,0,1,.19-.29s0,0,0,0,0,0,0,0a3.31,3.31,0,0,0-.18.29l-.09.14S34.85,90.61,34.84,90.61Z"/><polygon class="cls-2" points="34.82 90.54 34.51 90.55 34.48 90.61 34.79 90.61 34.75 90.67 34.44 90.68 34.4 90.74 34.71 90.73 34.68 90.8 34.37 90.81 34.33 90.88 34.64 90.86 34.6 90.93 34.66 90.96 34.7 90.89 34.85 91.16 34.89 91.09 34.73 90.83 34.77 90.77 34.92 91.03 34.96 90.97 34.8 90.7 34.84 90.64 34.99 90.91 35.03 90.84 34.88 90.58 34.82 90.54"/><path class="cls-2" d="M35.4,89.75h0s0,0,0,0,.19-.27.3-.41a0,0,0,0,1,0,0,0,0,0,0,1,0,0c-.11.14-.21.28-.29.4Z"/><polygon class="cls-2" points="35.39 89.68 35.08 89.65 35.04 89.71 35.35 89.74 35.3 89.8 34.99 89.78 34.95 89.84 35.26 89.86 35.22 89.92 34.91 89.9 34.87 89.97 35.18 89.98 35.14 90.04 35.19 90.08 35.23 90.01 35.37 90.29 35.41 90.23 35.27 89.95 35.31 89.89 35.45 90.17 35.49 90.11 35.35 89.83 35.4 89.77 35.53 90.05 35.57 89.99 35.44 89.71 35.39 89.68"/><path class="cls-2" d="M36,88.93h0a0,0,0,0,1,0,0l0,0,.3-.34a0,0,0,0,1,0,0,0,0,0,0,1,0,0c-.11.1-.2.22-.3.33l0,0Z"/><polygon class="cls-2" points="36.03 88.86 35.72 88.81 35.67 88.87 35.98 88.92 35.93 88.97 35.62 88.92 35.58 88.98 35.88 89.03 35.84 89.08 35.53 89.05 35.48 89.1 35.79 89.14 35.74 89.2 35.79 89.24 35.84 89.18 35.95 89.47 36 89.41 35.88 89.13 35.93 89.07 36.04 89.36 36.09 89.3 35.98 89.01 36.03 88.96 36.13 89.24 36.18 89.19 36.08 88.9 36.03 88.86"/><path class="cls-2" d="M36.74,88.18h0s0,0,0,0l.12-.12.24-.22a0,0,0,0,1,.05,0s0,0,0,0l-.23.21a1.59,1.59,0,0,1-.13.13Z"/><polygon class="cls-2" points="36.73 88.1 36.43 88.03 36.38 88.08 36.68 88.16 36.63 88.21 36.33 88.13 36.28 88.19 36.58 88.26 36.52 88.31 36.22 88.24 36.17 88.3 36.47 88.36 36.42 88.42 36.47 88.46 36.52 88.41 36.61 88.7 36.66 88.65 36.57 88.36 36.62 88.3 36.7 88.6 36.75 88.55 36.67 88.25 36.73 88.2 36.8 88.5 36.85 88.44 36.78 88.15 36.73 88.1"/><path class="cls-2" d="M37.51,87.49h0a0,0,0,0,1,0,0l.4-.3a0,0,0,0,1,0,0,0,0,0,0,1,0,0l-.4.3Z"/><polygon class="cls-2" points="37.51 87.42 37.22 87.31 37.16 87.36 37.45 87.46 37.4 87.51 37.1 87.41 37.05 87.46 37.34 87.56 37.28 87.61 36.99 87.51 36.93 87.56 37.23 87.66 37.17 87.7 37.21 87.75 37.27 87.7 37.33 88 37.38 87.96 37.32 87.66 37.38 87.61 37.43 87.91 37.49 87.86 37.44 87.56 37.49 87.51 37.54 87.82 37.6 87.77 37.55 87.47 37.51 87.42"/><path class="cls-2" d="M38.35,86.89h0a0,0,0,0,1,0,0l.32-.2.11-.06s0,0,0,0,0,0,0,0a.41.41,0,0,1-.11.07l-.31.19Z"/><path class="cls-2" d="M38.35,86.82l-.27-.14-.07,0,.28.14-.06,0L38,86.77l-.06,0,.28.13-.06,0-.29-.13-.06,0,.29.13-.07,0,0,0,.06,0,0,.31.06,0,0-.31.06,0,0,.31.06,0,0-.31.06,0v.31l.06,0v-.31Z"/><path class="cls-2" d="M39.24,86.38a0,0,0,0,1,0,0s0,0,0,0l.16-.08.29-.14a0,0,0,0,1,0,0,.08.08,0,0,1,0,0l-.29.13-.16.08Z"/><path class="cls-2" d="M39.25,86.3,39,86.14l-.07,0,.27.17-.07,0-.27-.16-.06,0,.27.15-.07,0-.27-.16-.06,0,.27.15-.07,0,0,.06.07,0v.31l.06,0v-.31l.06,0v.31l.06,0c0-.1,0-.2,0-.3l.07,0,0,.31.06,0,0-.31Z"/><path class="cls-2" d="M40.19,86s0,0,0,0,0,0,0,0a1.82,1.82,0,0,1,.3-.11l.17-.06s0,0,0,0,0,0,0,0l-.17.06-.3.1Z"/><polygon class="cls-2" points="40.2 85.89 39.96 85.7 39.89 85.73 40.13 85.91 40.06 85.94 39.82 85.76 39.75 85.78 40 85.97 39.93 86 39.68 85.81 39.61 85.84 39.86 86.03 39.79 86.05 39.81 86.11 39.88 86.08 39.85 86.39 39.91 86.36 39.95 86.06 40.02 86.03 39.98 86.33 40.04 86.31 40.09 86 40.16 85.97 40.11 86.28 40.18 86.25 40.22 85.94 40.2 85.89"/><path class="cls-2" d="M41.17,85.64l0,0s0,0,0,0l.49-.12s0,0,0,0,0,0,0,0l-.49.12Z"/><path class="cls-2" d="M41.19,85.57,41,85.36h-.07l.23.22-.07,0-.23-.21-.07,0,.22.21-.07,0-.23-.2-.07,0,.23.2-.07,0,0,.06.07,0-.07.31.07,0,.07-.3.07,0-.07.3L41,86c0-.1,0-.2.07-.3l.07,0-.07.3.06,0,.08-.3Z"/><path d="M3.4,59a2.3,2.3,0,0,1,2.09-.78c6.58,1,39.87,6.07,67.69,13,29.64,7.39,67.16,11.87,70.47,12.26a.3.3,0,0,1,.22.14.31.31,0,0,1,0,.12,7.76,7.76,0,0,1-.88,5.46l-.07.08a.34.34,0,0,1-.26.06c-3.05-.65-40.16-8.52-70.69-11.07C43.54,75.93,10.5,70.08,3.81,68.86A2.3,2.3,0,0,1,2,67.33,8.32,8.32,0,0,1,3.4,59Z"/><path d="M144.47,83.82a.22.22,0,0,1,0-.19c.64-1.14,1.47-1.81,2.27-1.68,1.34.22,2.06,2.59,1.61,5.3s-1.89,4.73-3.23,4.51c-.78-.13-1.35-1-1.6-2.24a.3.3,0,0,1,0-.19h0a7.74,7.74,0,0,0,.89-5.47S144.47,83.84,144.47,83.82Z"/><polygon class="cls-2" points="80.36 75.94 69.39 75.6 58.74 72.95 47.77 73.31 47.76 73.31 37.13 70.66 26.17 71.02 26.15 71.02 15.52 68.37 4.57 68.73 4.56 68.51 15.54 68.15 15.56 68.15 26.19 70.8 37.15 70.44 37.17 70.44 47.8 73.09 58.76 72.73 58.77 72.73 69.42 75.38 78.69 75.67 69.72 72.92 58.71 72.06 48.37 68.25 37.36 67.39 27.02 63.58 16 62.72 5.65 58.91 5.73 58.7 16.07 62.5 27.08 63.37 37.42 67.17 48.44 68.03 58.78 71.84 69.76 72.7 80.36 75.94"/><path class="cls-2" d="M143.47,87.06l-10.1-.77-8.61-2.54-2.05-.13-1.31-.46L111.86,83l-10.5-3.1-11-.14-10.5-3.1-11-.14v-.22l11,.14,10.5,3.1,11,.14,10.51,3.1,8.82.11L112.36,80l-11-.67L91,75.74l-11-.67L69.69,71.46l.07-.22,10.35,3.61,11,.67,10.35,3.61,11,.66,9,3.15,1.45,0,1.91.57,8.92.53,9.79,2.78Zm-17.72-3.25,7.66,2.26,9,.68-8.7-2.46Zm-3-.41,1,.06-1-.28h-.73Z"/><polygon class="cls-2" points="52.93 71.86 42.62 71.18 33.04 69.07 23.27 68.88 13.68 66.77 3.91 66.58 3.92 66.36 13.71 66.55 23.3 68.66 33.07 68.85 42.65 70.96 50.83 71.5 42.88 69.24 33.12 68.05 23.75 64.96 14 63.77 4.63 60.68 4.7 60.47 14.05 63.55 23.8 64.74 33.17 67.83 42.92 69.02 52.93 71.86"/><polygon class="cls-2" points="31.32 68.2 22.64 67.2 13.81 65.37 4.84 64.6 4.86 64.37 13.84 65.15 22.68 66.98 29.59 67.77 22.81 66.1 13.89 64.76 5.17 62.36 5.23 62.15 13.93 64.54 22.85 65.88 31.36 67.98 31.32 68.2"/></g></svg>