<svg xmlns="http://www.w3.org/2000/svg" viewBox="0 0 150 150"><defs><style>.cls-1{fill:#333;}.cls-2{fill:#458dfd;}</style></defs><g id="Blue"><circle class="cls-1" cx="36.06" cy="85.3" r="5.88"/><path class="cls-1" d="M30.16,85.48a12,12,0,0,0,7.52-5.76"/><path class="cls-2" d="M30.19,85.5l0,0s0,0,0,0l.45-.13s0,0,0,0,0,0,0,0l-.45.13Z"/><polygon class="cls-2" points="30.61 85.31 30.67 85.01 30.73 84.99 30.68 85.29 30.74 85.27 30.8 84.97 30.86 84.95 30.81 85.25 30.87 85.23 30.93 84.93 30.99 84.9 30.94 85.21 31.01 85.18 31.03 85.24 30.96 85.27 31.19 85.47 31.12 85.49 30.89 85.29 30.83 85.31 31.05 85.52 30.99 85.54 30.76 85.33 30.7 85.35 30.92 85.56 30.85 85.58 30.63 85.37 30.61 85.31"/><path class="cls-2" d="M31.12,85.21s0,0,0,0,0,0,0,0l.15-.06.29-.11s0,0,0,0,0,0,0,0l-.28.11-.16.06Z"/><polygon class="cls-2" points="31.53 84.99 31.56 84.69 31.63 84.66 31.59 84.96 31.65 84.94 31.69 84.64 31.75 84.61 31.72 84.91 31.78 84.89 31.81 84.58 31.88 84.56 31.85 84.86 31.91 84.83 31.94 84.89 31.87 84.92 32.12 85.11 32.05 85.14 31.81 84.94 31.74 84.97 31.98 85.16 31.92 85.19 31.68 85 31.61 85.02 31.85 85.22 31.79 85.24 31.55 85.05 31.53 84.99"/><path class="cls-2" d="M32,84.85l0,0a0,0,0,0,1,0,0l.43-.2a0,0,0,0,1,0,0s0,0,0,0l-.43.2Z"/><polygon class="cls-2" points="32.42 84.61 32.43 84.3 32.49 84.27 32.48 84.57 32.54 84.54 32.55 84.24 32.61 84.21 32.6 84.51 32.66 84.48 32.67 84.17 32.73 84.14 32.73 84.45 32.79 84.42 32.82 84.47 32.76 84.5 33.01 84.67 32.95 84.71 32.69 84.54 32.63 84.57 32.89 84.74 32.82 84.77 32.57 84.6 32.51 84.63 32.76 84.8 32.7 84.83 32.45 84.66 32.42 84.61"/><path class="cls-2" d="M32.9,84.43l0,0s0,0,0,0l.42-.23a0,0,0,0,1,0,0s0,0,0,0l-.41.23Z"/><polygon class="cls-2" points="33.28 84.15 33.27 83.85 33.33 83.81 33.34 84.12 33.4 84.08 33.38 83.78 33.44 83.74 33.46 84.05 33.52 84.01 33.5 83.7 33.56 83.67 33.57 83.97 33.63 83.94 33.67 83.99 33.61 84.03 33.88 84.18 33.81 84.21 33.55 84.06 33.49 84.1 33.75 84.25 33.69 84.29 33.43 84.14 33.37 84.17 33.63 84.33 33.57 84.36 33.31 84.2 33.28 84.15"/><path class="cls-2" d="M33.74,83.94l0,0s0,0,0,0l.4-.26a0,0,0,0,1,0,0,0,0,0,0,1,0,0c-.13.1-.28.19-.39.26Z"/><polygon class="cls-2" points="34.1 83.63 34.06 83.33 34.12 83.29 34.15 83.59 34.21 83.55 34.17 83.25 34.23 83.21 34.27 83.51 34.32 83.47 34.29 83.17 34.34 83.13 34.38 83.44 34.44 83.39 34.48 83.44 34.42 83.49 34.7 83.61 34.64 83.66 34.36 83.53 34.3 83.57 34.58 83.7 34.52 83.74 34.25 83.61 34.19 83.65 34.47 83.78 34.41 83.82 34.13 83.69 34.1 83.63"/><path class="cls-2" d="M34.54,83.39a0,0,0,0,1,0,0,0,0,0,0,1,0,0L34.9,83a0,0,0,0,1,0,0s0,0,0,0l-.37.29Z"/><path class="cls-2" d="M34.88,83.05l-.06-.3,0,0,.06.3,0,0-.06-.3,0,0,.07.3.05,0L35,82.58l0,0,.07.3,0,0,0,0,0,0,.29.1,0,0-.29-.11-.05,0,.28.1,0,.05L35,83l-.05,0,.29.11-.06,0-.28-.11Z"/><path class="cls-2" d="M35.29,82.77h0a0,0,0,0,1,0-.05,3.59,3.59,0,0,0,.35-.32,0,0,0,0,1,0,0,0,0,0,0,1,0,0l-.35.32Z"/><polygon class="cls-2" points="35.6 82.41 35.52 82.11 35.56 82.07 35.65 82.36 35.7 82.31 35.61 82.02 35.66 81.97 35.75 82.26 35.8 82.21 35.71 81.92 35.76 81.88 35.85 82.16 35.9 82.11 35.94 82.16 35.89 82.21 36.19 82.29 36.14 82.34 35.84 82.26 35.79 82.31 36.09 82.39 36.04 82.44 35.74 82.36 35.69 82.4 35.99 82.49 35.94 82.54 35.64 82.45 35.6 82.41"/><path class="cls-2" d="M36,82.09h0a0,0,0,0,1,0,0l.31-.36a0,0,0,0,1,0,0,0,0,0,0,1,0,0l-.31.35Z"/><path class="cls-2" d="M36.27,81.7l-.11-.28.05,0,.1.28,0-.05-.11-.28,0-.06.12.29,0-.06-.12-.28,0,0,.12.28,0-.06,0,0,0,.06.3,0,0,0-.3,0,0,.06.3,0,0,.06-.3-.06,0,0,.31.06-.05.06-.3-.07Z"/><path class="cls-2" d="M36.63,81.35h0a0,0,0,0,1,0,0l.1-.13.19-.24a0,0,0,0,1,0,0,0,0,0,0,1,0,0,2.35,2.35,0,0,1-.19.25,1.47,1.47,0,0,0-.1.13Z"/><polygon class="cls-2" points="36.87 80.94 36.74 80.67 36.78 80.61 36.91 80.89 36.95 80.83 36.81 80.56 36.85 80.5 36.99 80.77 37.03 80.72 36.89 80.45 36.93 80.39 37.07 80.66 37.11 80.6 37.16 80.64 37.12 80.69 37.43 80.72 37.39 80.78 37.08 80.75 37.04 80.81 37.35 80.84 37.31 80.9 37 80.87 36.96 80.92 37.27 80.96 37.23 81.02 36.92 80.98 36.87 80.94"/><path class="cls-2" d="M37.2,80.56h0s0,0,0,0a3.45,3.45,0,0,0,.2-.32l.05-.08s0,0,0,0,0,0,0,.05l0,.08c-.07.1-.13.21-.21.32S37.21,80.56,37.2,80.56Z"/><polygon class="cls-2" points="37.41 80.13 37.25 79.87 37.28 79.81 37.44 80.07 37.48 80.01 37.32 79.75 37.35 79.7 37.51 79.95 37.55 79.89 37.39 79.64 37.42 79.58 37.58 79.84 37.62 79.78 37.67 79.81 37.64 79.87 37.95 79.87 37.91 79.93 37.6 79.93 37.57 79.99 37.88 79.99 37.84 80.05 37.53 80.05 37.5 80.11 37.8 80.11 37.77 80.17 37.46 80.17 37.41 80.13"/><path class="cls-1" d="M34.82,91a10.5,10.5,0,0,1,7-5.49"/><path class="cls-2" d="M35.07,90.58s0,0,0,0a0,0,0,0,1,0,0l.08-.14.18-.29h.05a0,0,0,0,1,0,0l-.18.29-.08.13Z"/><polygon class="cls-2" points="35.05 90.51 34.74 90.51 34.71 90.58 35.01 90.57 34.98 90.63 34.67 90.64 34.63 90.71 34.94 90.7 34.91 90.76 34.6 90.77 34.56 90.84 34.87 90.83 34.83 90.89 34.89 90.92 34.92 90.86 35.08 91.12 35.12 91.05 34.96 90.79 35 90.73 35.15 90.99 35.19 90.93 35.03 90.67 35.07 90.6 35.22 90.87 35.26 90.81 35.11 90.54 35.05 90.51"/><path class="cls-2" d="M35.62,89.72a0,0,0,0,1,0,0,0,0,0,0,1,0,0,3.47,3.47,0,0,1,.3-.4,0,0,0,0,1,0,0,0,0,0,0,1,0,0l-.29.39Z"/><polygon class="cls-2" points="35.61 89.65 35.31 89.62 35.26 89.69 35.57 89.71 35.53 89.77 35.22 89.75 35.18 89.81 35.49 89.83 35.45 89.89 35.14 89.87 35.1 89.94 35.41 89.95 35.36 90.01 35.42 90.05 35.46 89.98 35.59 90.26 35.63 90.2 35.5 89.92 35.54 89.86 35.67 90.14 35.71 90.08 35.58 89.8 35.62 89.74 35.75 90.02 35.79 89.96 35.66 89.68 35.61 89.65"/><path class="cls-2" d="M36.25,88.91h0a0,0,0,0,1,0,0l0,0c.09-.11.19-.23.3-.34a0,0,0,0,1,0,0s0,0,0,0a3.08,3.08,0,0,0-.3.33l0,0Z"/><polygon class="cls-2" points="36.25 88.84 35.94 88.79 35.89 88.84 36.2 88.89 36.15 88.95 35.84 88.9 35.8 88.96 36.1 89 36.06 89.06 35.75 89.02 35.71 89.08 36.01 89.12 35.97 89.18 36.01 89.22 36.06 89.16 36.17 89.44 36.22 89.39 36.1 89.1 36.15 89.04 36.26 89.33 36.3 89.27 36.2 88.99 36.25 88.93 36.35 89.22 36.4 89.17 36.29 88.88 36.25 88.84"/><path class="cls-2" d="M37,88.16h0a0,0,0,0,1,0,0l.12-.12.24-.23s0,0,.05,0a0,0,0,0,1,0,0L37.1,88l-.13.12Z"/><polygon class="cls-2" points="36.95 88.09 36.65 88.01 36.59 88.06 36.9 88.14 36.84 88.19 36.54 88.12 36.49 88.17 36.79 88.24 36.74 88.29 36.44 88.23 36.39 88.28 36.69 88.35 36.64 88.4 36.68 88.44 36.73 88.39 36.82 88.68 36.87 88.63 36.78 88.34 36.83 88.28 36.92 88.58 36.97 88.53 36.89 88.23 36.94 88.18 37.02 88.48 37.07 88.43 36.99 88.13 36.95 88.09"/><path class="cls-2" d="M37.72,87.48h0s0,0,0,0l.39-.3s0,0,0,0a0,0,0,0,1,0,0l-.39.3Z"/><polygon class="cls-2" points="37.72 87.41 37.43 87.3 37.37 87.35 37.66 87.45 37.6 87.5 37.31 87.4 37.26 87.45 37.55 87.55 37.49 87.59 37.2 87.5 37.14 87.55 37.44 87.64 37.38 87.69 37.42 87.74 37.48 87.69 37.53 87.99 37.59 87.94 37.53 87.64 37.59 87.59 37.64 87.9 37.7 87.85 37.64 87.55 37.7 87.5 37.75 87.8 37.8 87.76 37.76 87.46 37.72 87.41"/><path class="cls-2" d="M38.55,86.88h0a0,0,0,0,1,0-.05c.1-.07.22-.13.32-.19l.11-.06a0,0,0,0,1,0,.05l-.1.06a2.14,2.14,0,0,0-.32.2Z"/><path class="cls-2" d="M38.55,86.81l-.27-.13-.06,0,.27.13-.06,0-.28-.13-.06,0,.28.13-.06,0L38,86.84l-.06,0,.28.12-.06,0,0,.06.06,0,0,.31.06,0,0-.31.06,0,0,.31.06,0,0-.31.06,0,0,.31.05,0v-.31Z"/><path class="cls-2" d="M39.44,86.37s0,0,0,0a0,0,0,0,1,0,0l.17-.08.28-.13s0,0,0,0,0,0,0,0l-.29.14-.16.08Z"/><path class="cls-2" d="M39.45,86.3l-.27-.16-.06,0,.26.16-.06,0-.27-.16-.06,0,.26.15-.06,0-.27-.15-.06,0,.26.15-.06,0,0,0,.06,0v.3l.06,0v-.31l.06,0v.31l.06,0c0-.11,0-.21,0-.31l.07,0,0,.3.07,0,0-.3Z"/><path class="cls-2" d="M40.37,86a0,0,0,0,1,0,0s0,0,0,0a1.92,1.92,0,0,1,.31-.11l.16-.06s0,0,0,0,0,0,0,0l-.17.06a1.54,1.54,0,0,0-.3.11Z"/><polygon class="cls-2" points="40.39 85.89 40.15 85.7 40.08 85.73 40.32 85.92 40.25 85.94 40.01 85.76 39.94 85.79 40.18 85.97 40.12 86 39.87 85.81 39.8 85.84 40.05 86.03 39.98 86.05 40 86.11 40.07 86.08 40.03 86.38 40.1 86.36 40.14 86.06 40.21 86.03 40.17 86.33 40.23 86.3 40.27 86 40.34 85.97 40.3 86.28 40.36 86.25 40.41 85.95 40.39 85.89"/><path class="cls-2" d="M41.35,85.65a0,0,0,0,1,0,0,.08.08,0,0,1,0,0l.48-.12s0,0,0,0,0,0,0,0l-.48.12Z"/><path class="cls-2" d="M41.37,85.58l-.23-.22-.07,0,.23.22h-.07L41,85.4l-.07,0,.22.2-.07,0-.22-.2-.07,0,.22.21-.07,0,0,.06.07,0L41,86,41,86l.07-.3.07,0-.07.3.07,0c0-.1,0-.2.07-.3h.07l-.08.29.07,0,.08-.29Z"/><path d="M3.93,59.3A2.29,2.29,0,0,1,6,58.51c6.52,1,39.56,5.95,67.18,12.78,29.41,7.27,66.66,11.64,69.93,12a.3.3,0,0,1,.23.14.61.61,0,0,1,.05.12,7.7,7.7,0,0,1-.87,5.42.23.23,0,0,1-.07.07.3.3,0,0,1-.26.06c-3-.64-39.86-8.37-70.15-10.84C43.78,76,11,70.24,4.35,69.05a2.3,2.3,0,0,1-1.76-1.51A8.26,8.26,0,0,1,3.93,59.3Z"/><path d="M143.94,83.62a.24.24,0,0,1,0-.2c.63-1.13,1.46-1.79,2.25-1.66,1.33.21,2,2.57,1.61,5.26s-1.87,4.69-3.2,4.48c-.77-.13-1.34-1-1.59-2.22a.34.34,0,0,1,0-.2h0a7.7,7.7,0,0,0,.87-5.42Z"/><polygon class="cls-2" points="80.31 75.92 69.43 75.61 58.86 73 47.98 73.38 47.97 73.38 37.42 70.77 26.54 71.15 26.53 71.14 15.97 68.54 5.11 68.92 5.1 68.69 16 68.32 16.01 68.32 26.57 70.92 37.44 70.55 37.46 70.55 48.01 73.16 58.88 72.78 58.9 72.78 69.46 75.39 78.66 75.65 69.76 72.94 58.84 72.11 48.57 68.35 37.64 67.52 27.37 63.76 16.44 62.93 6.17 59.17 6.24 58.96 16.51 62.72 27.44 63.55 37.7 67.31 48.63 68.14 58.9 71.9 69.8 72.72 80.31 75.92"/><path class="cls-2" d="M143,86.17l-10-.68L124.44,83l-2-.11-1.31-.44-9.46,0-10.45-3-10.9,0-10.44-3L69,76.38v-.22l10.91,0,10.45,3,10.9,0,10.44,3,8.75,0-8.33-2.82-10.89-.57-10.3-3.5L80,74.8,69.69,71.3l.07-.21,10.3,3.5,10.9.57,10.3,3.49,10.89.57,9,3h1.44l1.91.55,8.84.46L143.06,86Zm-17.61-3.08L133,85.27l8.91.6-8.66-2.37Zm-3-.38,1,.06-1-.28h-.73Z"/><polygon class="cls-2" points="53.1 71.93 42.87 71.28 33.36 69.2 23.66 69.03 14.15 66.95 4.45 66.79 4.46 66.56 14.17 66.73 23.69 68.81 33.38 68.98 42.9 71.06 51.02 71.58 43.12 69.34 33.44 68.18 24.13 65.14 14.46 63.98 5.15 60.93 5.22 60.72 14.5 63.76 24.18 64.92 33.48 67.97 43.16 69.13 53.1 71.93"/><polygon class="cls-2" points="31.65 68.34 23.04 67.36 14.27 65.56 5.38 64.82 5.39 64.59 14.3 65.34 23.07 67.14 29.93 67.92 23.2 66.27 14.35 64.96 5.69 62.6 5.75 62.38 14.39 64.74 23.24 66.06 31.69 68.12 31.65 68.34"/></g></svg>