<svg xmlns="http://www.w3.org/2000/svg" viewBox="0 0 150 150"><defs><style>.cls-1{fill:none;stroke:#000;stroke-miterlimit:10;stroke-width:0.5px;}.cls-2{fill:#ff0103;}.cls-3{fill:#cda874;}.cls-4{fill:#cacaca;}</style></defs><g id="Blue"><circle class="cls-1" cx="36.15" cy="85.33" r="5.81"/><path class="cls-2" d="M30.34,85.6s0,0,0,0,0,0,0,0l.45-.13s0,0,0,0a0,0,0,0,1,0,0l-.45.13Z"/><polygon class="cls-2" points="30.76 85.41 30.81 85.11 30.88 85.09 30.82 85.39 30.89 85.37 30.94 85.07 31.01 85.05 30.95 85.35 31.02 85.33 31.07 85.03 31.13 85.01 31.08 85.31 31.15 85.28 31.17 85.34 31.1 85.37 31.33 85.57 31.27 85.59 31.04 85.39 30.97 85.41 31.2 85.62 31.13 85.64 30.91 85.43 30.84 85.45 31.07 85.66 31 85.68 30.77 85.47 30.76 85.41"/><path class="cls-2" d="M31.26,85.31l0,0s0,0,0,0l.16-.06.28-.11s0,0,0,0,0,0,0,0l-.28.11-.16.06Z"/><polygon class="cls-2" points="31.67 85.09 31.7 84.79 31.77 84.77 31.73 85.07 31.8 85.04 31.83 84.74 31.89 84.71 31.86 85.02 31.92 84.99 31.95 84.69 32.02 84.66 31.99 84.96 32.05 84.94 32.08 84.99 32.01 85.02 32.25 85.21 32.19 85.24 31.95 85.05 31.88 85.07 32.12 85.26 32.06 85.29 31.82 85.1 31.75 85.13 31.99 85.32 31.93 85.34 31.69 85.15 31.67 85.09"/><path class="cls-2" d="M32.16,85s0,0,0,0a0,0,0,0,1,0,0l.43-.19s0,0,0,0a0,0,0,0,1,0,.05l-.42.19Z"/><polygon class="cls-2" points="32.55 84.71 32.57 84.4 32.63 84.37 32.62 84.68 32.68 84.65 32.69 84.34 32.75 84.31 32.74 84.62 32.8 84.58 32.81 84.28 32.87 84.25 32.86 84.55 32.92 84.52 32.95 84.58 32.89 84.61 33.15 84.78 33.08 84.81 32.83 84.64 32.77 84.67 33.02 84.84 32.96 84.88 32.71 84.7 32.64 84.73 32.9 84.91 32.83 84.94 32.58 84.77 32.55 84.71"/><path class="cls-2" d="M33,84.53s0,0,0,0,0,0,0,0l.41-.23s0,0,0,0a0,0,0,0,1,0,0l-.41.23Z"/><polygon class="cls-2" points="33.41 84.26 33.4 83.95 33.46 83.92 33.47 84.22 33.53 84.19 33.52 83.89 33.57 83.85 33.59 84.15 33.65 84.12 33.63 83.81 33.69 83.78 33.7 84.08 33.77 84.04 33.8 84.1 33.74 84.14 34.01 84.28 33.95 84.32 33.68 84.17 33.62 84.21 33.89 84.36 33.83 84.39 33.56 84.24 33.5 84.28 33.77 84.43 33.7 84.47 33.44 84.31 33.41 84.26"/><path class="cls-2" d="M33.87,84s0,0,0,0,0,0,0,0l.39-.26a0,0,0,0,1,0,0,0,0,0,0,1,0,0l-.39.26Z"/><polygon class="cls-2" points="34.23 83.74 34.19 83.44 34.25 83.4 34.28 83.7 34.34 83.66 34.3 83.36 34.36 83.32 34.4 83.62 34.45 83.58 34.41 83.28 34.47 83.24 34.51 83.55 34.57 83.5 34.6 83.56 34.55 83.6 34.83 83.72 34.77 83.77 34.49 83.64 34.43 83.67 34.71 83.81 34.65 83.85 34.38 83.72 34.32 83.75 34.59 83.89 34.54 83.93 34.26 83.79 34.23 83.74"/><path class="cls-2" d="M34.67,83.5a0,0,0,0,1,0,0s0,0,0,0l.37-.29a0,0,0,0,1,0,0,0,0,0,0,1,0,0l-.37.29Z"/><path class="cls-2" d="M35,83.16l-.06-.29.05-.05.07.3,0,0-.06-.3.05,0,.06.3.05,0-.06-.3.05,0,.06.29.06,0,0,0-.06,0,.29.1-.05,0-.29-.1,0,0,.29.1-.06,0-.28-.1,0,0,.28.11-.05,0L35,83.21Z"/><path class="cls-2" d="M35.42,82.88h0s0,0,0-.05l.34-.31a0,0,0,0,1,0,0,0,0,0,0,1,0,0,3.47,3.47,0,0,1-.34.32Z"/><polygon class="cls-2" points="35.72 82.52 35.64 82.23 35.69 82.18 35.77 82.47 35.82 82.42 35.73 82.14 35.78 82.09 35.87 82.38 35.92 82.33 35.83 82.04 35.88 81.99 35.97 82.28 36.02 82.23 36.06 82.27 36.01 82.32 36.31 82.4 36.26 82.45 35.96 82.37 35.91 82.42 36.21 82.5 36.16 82.55 35.87 82.47 35.82 82.52 36.11 82.6 36.06 82.65 35.77 82.57 35.72 82.52"/><path class="cls-2" d="M36.11,82.21h0a0,0,0,0,1,0,0l.31-.35h.05a0,0,0,0,1,0,0l-.31.36Z"/><path class="cls-2" d="M36.39,81.82l-.11-.28,0-.05.1.28,0,0-.11-.28,0-.06.11.29,0-.06-.12-.28,0,0,.12.28,0-.06.05,0,0,.06.3.05-.05,0-.29,0,0,.06.3.05,0,.06-.3-.06-.05,0,.3.06,0,0-.31-.06Z"/><path class="cls-2" d="M36.74,81.47h0a0,0,0,0,1,0,0,1.47,1.47,0,0,1,.1-.13c.06-.08.13-.16.18-.24s0,0,0,0,0,0,0,0a2.51,2.51,0,0,1-.19.24l-.1.14Z"/><polygon class="cls-2" points="36.99 81.07 36.85 80.79 36.89 80.74 37.03 81.01 37.07 80.95 36.93 80.68 36.97 80.63 37.11 80.9 37.15 80.84 37.01 80.57 37.05 80.51 37.19 80.78 37.22 80.72 37.28 80.76 37.24 80.82 37.54 80.84 37.5 80.9 37.2 80.88 37.16 80.93 37.46 80.96 37.42 81.02 37.12 80.99 37.08 81.05 37.38 81.08 37.34 81.14 37.04 81.1 36.99 81.07"/><path class="cls-2" d="M37.31,80.69h0a0,0,0,0,1,0,0l.2-.33,0-.07s0,0,0,0,0,0,0,0l-.05.08c-.06.1-.13.22-.2.32Z"/><polygon class="cls-2" points="37.52 80.26 37.36 80 37.4 79.94 37.55 80.2 37.59 80.14 37.43 79.88 37.47 79.82 37.63 80.08 37.66 80.02 37.5 79.77 37.53 79.71 37.7 79.96 37.73 79.9 37.79 79.93 37.75 79.99 38.06 79.99 38.02 80.06 37.71 80.05 37.68 80.11 37.99 80.12 37.95 80.18 37.64 80.17 37.61 80.23 37.91 80.24 37.88 80.3 37.57 80.29 37.52 80.26"/><path class="cls-2" d="M35.19,90.65h0a.07.07,0,0,1,0-.05l.09-.13a3.31,3.31,0,0,1,.18-.29h0a0,0,0,0,1,0,0c-.07.09-.12.19-.18.28a1,1,0,0,0-.08.14Z"/><polygon class="cls-2" points="35.18 90.58 34.87 90.59 34.83 90.65 35.14 90.65 35.1 90.71 34.8 90.72 34.76 90.78 35.07 90.77 35.03 90.84 34.73 90.85 34.69 90.91 35 90.9 34.96 90.97 35.01 90.99 35.05 90.93 35.21 91.19 35.24 91.13 35.09 90.87 35.12 90.8 35.28 91.06 35.31 91 35.16 90.74 35.19 90.68 35.34 90.94 35.38 90.88 35.23 90.61 35.18 90.58"/><path class="cls-2" d="M35.75,89.8h0a0,0,0,0,1,0,0c.1-.14.19-.27.3-.4s0,0,0,0,0,0,0,0-.2.26-.3.39A0,0,0,0,1,35.75,89.8Z"/><polygon class="cls-2" points="35.74 89.73 35.43 89.7 35.39 89.77 35.69 89.79 35.65 89.85 35.34 89.83 35.3 89.89 35.61 89.91 35.57 89.97 35.26 89.95 35.22 90.01 35.53 90.03 35.49 90.09 35.54 90.12 35.58 90.06 35.72 90.33 35.75 90.27 35.62 90 35.66 89.94 35.79 90.22 35.83 90.16 35.7 89.88 35.74 89.82 35.87 90.1 35.91 90.04 35.79 89.76 35.74 89.73"/><path class="cls-2" d="M36.37,89h0a0,0,0,0,1,0,0l0,0c.1-.11.2-.23.31-.34h0a0,0,0,0,1,0,0l-.3.34,0,0Z"/><polygon class="cls-2" points="36.37 88.92 36.06 88.87 36.01 88.93 36.32 88.98 36.27 89.03 35.97 88.99 35.92 89.05 36.22 89.09 36.18 89.14 35.88 89.1 35.83 89.16 36.13 89.2 36.09 89.26 36.13 89.3 36.18 89.24 36.29 89.52 36.34 89.47 36.23 89.18 36.27 89.13 36.38 89.41 36.42 89.36 36.32 89.07 36.37 89.02 36.47 89.3 36.51 89.25 36.41 88.96 36.37 88.92"/><path class="cls-2" d="M37.07,88.25h0s0,0,0,0l.12-.12c.08-.07.15-.15.24-.22a0,0,0,0,1,0,0,0,0,0,0,1,0,0l-.24.22-.12.12Z"/><polygon class="cls-2" points="37.06 88.17 36.77 88.1 36.71 88.15 37.01 88.23 36.96 88.28 36.66 88.2 36.61 88.26 36.91 88.33 36.86 88.38 36.56 88.31 36.51 88.37 36.81 88.43 36.76 88.49 36.8 88.53 36.85 88.48 36.94 88.77 36.99 88.72 36.9 88.42 36.95 88.37 37.03 88.67 37.08 88.61 37 88.32 37.05 88.27 37.13 88.56 37.18 88.51 37.11 88.22 37.06 88.17"/><path class="cls-2" d="M37.83,87.57h0a0,0,0,0,1,0,0l.39-.3a0,0,0,0,1,0,0,0,0,0,0,1,0,0l-.39.3Z"/><polygon class="cls-2" points="37.83 87.5 37.54 87.39 37.49 87.44 37.77 87.54 37.72 87.59 37.43 87.49 37.37 87.54 37.66 87.64 37.61 87.69 37.31 87.59 37.26 87.64 37.55 87.73 37.49 87.78 37.53 87.83 37.59 87.78 37.65 88.08 37.7 88.03 37.65 87.73 37.7 87.69 37.76 87.98 37.81 87.94 37.76 87.64 37.81 87.59 37.86 87.89 37.92 87.85 37.87 87.55 37.83 87.5"/><path class="cls-2" d="M38.66,87h0s0,0,0,0l.32-.2.11-.06s0,0,0,0,0,0,0,0l-.11.07a2.32,2.32,0,0,0-.31.19Z"/><path class="cls-2" d="M38.66,86.9l-.27-.13-.06,0,.27.13-.06,0-.28-.13-.06.05.28.12-.06,0-.28-.13-.06,0,.28.13-.06,0,0,0,.06,0,0,.3.06,0,0-.3.06,0,0,.3.05,0,0-.3.07,0v.3l.06,0V87Z"/><path class="cls-2" d="M39.54,86.47l0,0a0,0,0,0,1,0,0l.15-.08.3-.14a0,0,0,0,1,0,0s0,0,0,0l-.29.14-.15.08Z"/><path class="cls-2" d="M39.55,86.4l-.26-.17-.07,0,.27.16-.07,0-.26-.16-.07,0,.26.16-.06,0L39,86.38l-.07,0,.27.15-.07,0,0,.06.07,0v.31l.07,0v-.31l.06,0v.31l.06,0c0-.1,0-.2,0-.3l.06,0v.3l.06,0,0-.3Z"/><path class="cls-2" d="M40.47,86.06l0,0s0,0,0,0a1.92,1.92,0,0,1,.31-.11l.16-.06s0,0,0,0,0,0,0,0l-.16.06-.3.1Z"/><polygon class="cls-2" points="40.49 85.99 40.25 85.8 40.18 85.83 40.42 86.01 40.35 86.04 40.11 85.86 40.04 85.89 40.28 86.07 40.22 86.1 39.97 85.91 39.9 85.94 40.15 86.12 40.08 86.15 40.1 86.21 40.17 86.18 40.14 86.48 40.2 86.45 40.24 86.15 40.31 86.13 40.27 86.43 40.33 86.4 40.38 86.1 40.44 86.07 40.4 86.37 40.46 86.35 40.51 86.04 40.49 85.99"/><path class="cls-2" d="M41.44,85.74s0,0,0,0,0,0,0,0l.48-.12a.05.05,0,0,1,0,0,0,0,0,0,1,0,0l-.48.12Z"/><path class="cls-2" d="M41.46,85.68l-.22-.22-.07,0,.22.22h-.07l-.22-.21-.08,0,.23.2-.07,0-.23-.2-.07,0,.23.21-.07,0,0,.06.07,0-.07.3.07,0,.07-.3.07,0-.07.3.06,0c0-.1.05-.2.08-.3l.07,0-.08.29h.07l.08-.29Z"/><path class="cls-3" d="M4.28,59.33a2.29,2.29,0,0,1,2.07-.78c6.49,1,39.37,5.94,66.85,12.75,29.27,7.26,66.33,11.63,69.59,12a.28.28,0,0,1,.22.14.31.31,0,0,1,.05.12,7.61,7.61,0,0,1-.87,5.39.24.24,0,0,1-.06.08.34.34,0,0,1-.26.06c-3-.64-39.66-8.36-69.81-10.83C43.93,76,11.3,70.23,4.7,69a2.3,2.3,0,0,1-1.76-1.51A8.21,8.21,0,0,1,4.28,59.33Z"/><path d="M141.94,89.32h-.12c-4-.85-39.94-8.38-69.78-10.82C43.84,76.17,11,70.39,4.66,69.26A2.53,2.53,0,0,1,2.73,67.6a8.42,8.42,0,0,1,1.38-8.41h0a2.46,2.46,0,0,1,2.27-.86c6.34.94,39.38,6,66.87,12.76,29,7.19,65.5,11.53,69.56,12a.52.52,0,0,1,.39.24.6.6,0,0,1,.08.21,7.85,7.85,0,0,1-.9,5.55.34.34,0,0,1-.12.12A.46.46,0,0,1,141.94,89.32ZM4.28,59.33l.17.14a8,8,0,0,0-1.3,8,2.07,2.07,0,0,0,1.59,1.36C11,70,43.89,75.73,72.08,78c29.86,2.45,65.83,10,69.84,10.84a.1.1,0,0,0,.07,0,7.43,7.43,0,0,0,.85-5.26s-.05-.07-.08-.07c-4.06-.47-40.58-4.82-69.62-12C45.67,64.71,12.65,59.71,6.32,58.77a2.06,2.06,0,0,0-1.87.7Z"/><path class="cls-3" d="M143.6,83.62a.24.24,0,0,1,0-.19c.63-1.13,1.45-1.79,2.24-1.66,1.32.21,2,2.56,1.6,5.23s-1.87,4.67-3.18,4.46c-.78-.13-1.34-1-1.59-2.21a.29.29,0,0,1,.05-.2h0a7.69,7.69,0,0,0,.86-5.39A.06.06,0,0,0,143.6,83.62Z"/><path d="M144.49,91.7l-.24,0c-.84-.14-1.49-1-1.76-2.39a.47.47,0,0,1,.07-.36,7.48,7.48,0,0,0,.83-5.24h0a.46.46,0,0,1,0-.36c.71-1.27,1.61-1.92,2.48-1.77,1.46.24,2.24,2.65,1.78,5.49a8.23,8.23,0,0,1-1.3,3.4A2.5,2.5,0,0,1,144.49,91.7Zm-.68-8.15a.24.24,0,0,1,0,.08,7.83,7.83,0,0,1-.9,5.55c.23,1.19.75,1.95,1.39,2.06s1.16-.28,1.71-1A7.94,7.94,0,0,0,147.25,87c.41-2.51-.24-4.79-1.41-5-.66-.1-1.41.48-2,1.55l-.22.09Z"/><polygon class="cls-4" points="80.29 75.92 69.46 75.6 58.94 73 48.11 73.37 48.1 73.37 37.6 70.77 26.77 71.14 26.76 71.14 16.26 68.54 5.45 68.91 5.44 68.68 16.28 68.31 16.3 68.32 26.8 70.92 37.62 70.55 37.64 70.55 48.14 73.15 58.96 72.78 58.98 72.78 69.49 75.38 78.64 75.65 69.78 72.95 58.91 72.12 48.7 68.37 37.82 67.53 27.61 63.79 16.73 62.95 6.5 59.2 6.58 59 16.79 62.74 27.67 63.58 37.88 67.32 48.76 68.16 58.98 71.9 69.83 72.73 80.29 75.92"/><path class="cls-4" d="M142.63,86.81l-10-.74-8.49-2.5-2-.12-1.3-.45-9.42-.11-10.37-3-10.85-.12-10.37-3L69,76.55v-.22l10.86.12,10.37,3,10.85.12,10.37,3,8.71.1-8.27-2.87-10.84-.65L90.83,75.71,80,75.06,69.75,71.51l.07-.21,10.23,3.55,10.83.64L101.11,79l10.84.64,8.91,3.1,1.43,0,1.89.55,8.81.52,9.67,2.73Zm-17.5-3.18,7.55,2.22,8.86.66L133,84.09Zm-2.95-.4,1,.06-1-.28h-.73Z"/><polygon class="cls-4" points="53.21 71.93 43.02 71.27 33.56 69.2 23.91 69.03 14.44 66.96 4.79 66.79 4.8 66.56 14.47 66.74 23.94 68.81 33.59 68.98 43.05 71.06 51.13 71.58 43.27 69.35 33.64 68.19 24.38 65.15 14.75 63.99 5.49 60.96 5.56 60.75 14.8 63.78 24.43 64.94 33.69 67.97 43.32 69.14 53.21 71.93"/><polygon class="cls-4" points="31.74 68.58 23.17 67.66 14.43 65.93 5.57 65.24 5.59 65.02 14.46 65.71 23.2 67.44 30.03 68.17 23.32 66.58 14.5 65.33 5.87 63.03 5.93 62.82 14.54 65.11 23.36 66.36 31.78 68.36 31.74 68.58"/></g></svg>