<svg xmlns="http://www.w3.org/2000/svg" viewBox="0 0 150 150"><g id="Yellow"><path d="M60.28,81.74,59,77.23l-1.48-2.61-5.74-7.14-8.23-3.67-9.83-2.47L30.4,62A57,57,0,0,1,44,64.84L38.94,86.32a1,1,0,0,1-.94.75c-4.42,0-26.62.53-33.52,6.31-5.84,4.9-2.76,28.89-1.8,35.38A2.73,2.73,0,0,0,4.52,131c4.74,1.57,19,5.28,27.16-3.54,2-2,4.35-9,6.62-17.71l10.92-.58.86-3.84a.4.4,0,0,1-.37.25h-7.8a.4.4,0,0,1-.39-.5l1.36-4.89a.4.4,0,0,1,.3-.29c3.06-.69,5.93-4.07,6.53-4.81a.4.4,0,0,1,.3-.13H52a.39.39,0,0,1,.37.5ZM9.44,94.12v1.1a8.25,8.25,0,0,1-2.06-.41C7.28,94.59,9.1,94.12,9.44,94.12Zm-.16,7.73v2a.13.13,0,0,1-.14.14,11.44,11.44,0,0,1-3.4-.63.13.13,0,0,1,0-.24,20.32,20.32,0,0,1,3.39-1.36A.14.14,0,0,1,9.28,101.85ZM5.42,98a.28.28,0,0,1,.29-.09l2.53.64c.08,0,.08.11,0,.15a12,12,0,0,0-3.69,3.13.08.08,0,0,1-.14,0A5.08,5.08,0,0,1,5.42,98Zm.51,28.76c-1-2.7-1.52-17.18-1.61-19.91a.25.25,0,0,1,.36-.23,18.47,18.47,0,0,0,4.23,1.55.25.25,0,0,1,.19.25l.29,12.86a.52.52,0,0,1-.25.43,7,7,0,0,0-2.87,5A.18.18,0,0,1,5.93,126.72Zm15.28,2.09c-7.64.58-11.65-.49-13.08-1a.5.5,0,0,1-.22-.78c5.4-6.69,20.18-10.71,23.58-11.56a.48.48,0,0,1,.61.55C31.69,118.73,29.67,128.17,21.21,128.81Zm12.11-18.13L33,112.15a.67.67,0,0,1-.48.48c-5.63,1.41-17.27,6.11-20.62,7.49a.67.67,0,0,1-.92-.61L11,109.16a.65.65,0,0,1,.77-.64,146.84,146.84,0,0,0,20.87,1.32A.67.67,0,0,1,33.32,110.68Zm2.32-9.55-1,3.93a.52.52,0,0,1-.34.39c-2.86,1.18-19.64-.5-22.86-.83a.6.6,0,0,1-.53-.6v-2.39a.57.57,0,0,1,.4-.56l3.21-1.18a.45.45,0,0,1,.26,0,176,176,0,0,0,20.26.55A.57.57,0,0,1,35.64,101.13Zm2-7.95a.76.76,0,0,1-.67.67L20.92,96a7.4,7.4,0,0,1-.94,0,45.82,45.82,0,0,1-7.29-.53.8.8,0,0,1-.64-.89l.15-1a.79.79,0,0,1,.59-.65c7.12-1.86,20.61-2.94,24.36-3.22a.8.8,0,0,1,.83.91Zm16.39-1c-.07.12-1,0-1,0L55.29,90S54.1,92.06,54,92.18ZM49.6,68a.37.37,0,0,1,.56-.24c5.76,3.36,7.27,7.45,7.37,8.39a.38.38,0,0,1-.1.29c-5.16,6-9.39,9.32-10.81,10.22a.37.37,0,0,1-.57-.38ZM46,93a.47.47,0,0,1-.25.13l-.57.08a.5.5,0,0,1-.54-.6l.78-3.23a.46.46,0,0,1,.45-.37c3.31,0,9.92-7.42,12.08-10a.48.48,0,0,1,.85.24c.08.54.18,1.12.23,1.45a.48.48,0,0,1-.15.44Z"/><path d="M87,10.92,85,10.9a65.64,65.64,0,0,0-61.7,43.2,6.22,6.22,0,0,0,7.25,8.27h.07a6.59,6.59,0,0,1,2.83.08l7.87,2a6,6,0,0,1,1.08.37l6.26,2.8a6.46,6.46,0,0,1,2.43,1.87l4.42,5.49a7.58,7.58,0,0,1,.6.88L57,77.28a6.34,6.34,0,0,1,.6,1.45l.31,1.08a6.56,6.56,0,0,1-.64,5.07L51.05,95.51a6.62,6.62,0,0,0-.63,1.5,13.46,13.46,0,0,0-.66,5.35l0,.2-1.14,3a8.52,8.52,0,0,0-.26.86l-.76,3.4a24.4,24.4,0,0,0-.68,10.95c4.37,25.81,45.32,17.81,51.53,14.33l28.25-15a36.94,36.94,0,0,0,17.5-20.07c.68-1.87,1.31-3.78,1.9-5.68C158.59,53.84,129.37,12.15,87,10.92Zm14,91.82-1.66,4.15a9.18,9.18,0,0,1-4.68,5,27.19,27.19,0,0,1-4.71,1.76,5.34,5.34,0,0,1-1.64.21c-2.33-.14-7.87-4.93-10.36-7.19a1.67,1.67,0,0,1,0-2.5c4.94-4.24,19.4-10.49,19.4-10.49a2.68,2.68,0,0,1,3.27,1.49l.24.58A9.23,9.23,0,0,1,101,102.74Zm13.72,4a1.81,1.81,0,0,1-2.17-1.32l-1.45-5.94a1.81,1.81,0,0,1,1.33-2.17,1.47,1.47,0,0,1,.42,0,1.8,1.8,0,0,1,1.75,1.36l1.45,5.93A1.81,1.81,0,0,1,114.67,106.7Z"/></g></svg>